<svg xmlns="http://www.w3.org/2000/svg" xmlns:xlink="http://www.w3.org/1999/xlink" width="128px" height="26px" viewBox="0 0 128 26"><title>Group 427321199</title><g id="&#x8BBE;&#x8BA1;&#x7A3F;" stroke="none" stroke-width="1" fill="none" fill-rule="evenodd"><g id="&#x667A;&#x5E93;-&#x9AD8;&#x4EAE;&#x72B6;&#x6001;" transform="translate(-360.000000, -2233.000000)" fill="#747D88" fill-rule="nonzero"><g id="&#x7F16;&#x7EC4;-45&#x5907;&#x4EFD;-2" transform="translate(0.000000, 1787.000000)"><g id="&#x7F16;&#x7EC4;-44" transform="translate(0.000000, 427.000000)"><g id="Group-427321199" transform="translate(360.000000, 19.000000)"><g id="Group" transform="translate(-0.000000, 0.000000)"><g id="Group_2" transform="translate(0.000000, 0.000000)"><g id="Group_3" transform="translate(0.168947, 7.086428)"><path d="M7.35309375,11.9851725 L0.85095375,5.5324725 C-0.28365125,4.4064725 -0.28365125,2.5659325 0.85095375,1.4183025 L2.24738375,0.0324825 C2.29102375,-0.0108275 2.37830375,-0.0108275 2.44375375,0.0324825 L7.37491375,4.9261725 C9.33864375,6.8749725 9.33864375,10.0363725 7.35309375,11.9851725 Z" id="Vector"></path></g><path d="M9.90049025,0.232775003 L9.66048025,0.0162401025 C9.63866025,-0.0054133675 9.61684025,-0.0054133675 9.59502025,0.0162401025 L2.83105025,6.72882 L0.88913625,8.65598 C0.84549725,8.69929 0.78003925,8.74259 0.73640025,8.7859 C-0.24546675,9.76031 -0.24546675,11.341 0.73640025,12.3154 L4.31476025,15.8666 C3.33289025,14.8922 3.33289025,13.3115 4.31476025,12.3371 L6.10394025,10.5615 L9.15864025,7.53 L9.92231025,6.77213 C11.7115003,4.97489 11.7115003,2.05167 9.90049025,0.232775003 Z" id="Vector_2"></path></g><g id="Group_4" transform="translate(10.939413, 6.902590)"><g id="Group_5" transform="translate(2.247126, 0.000000)"><path d="M1.49186128,0 L8.01586128,6.47441 C9.15046128,7.60041 9.15046128,9.41931 8.01586128,10.54521 L6.59756128,11.95271 C6.55396128,11.99601 6.46666128,11.99601 6.40126128,11.95271 L1.47006128,7.05901 C-0.493638718,5.11021 -0.493638718,1.94881 1.49186128,0 C1.47006128,0 1.47006128,0 1.49186128,0 Z" id="Vector_3"></path></g><path d="M1.36098738,18.83801 L1.60108738,19.07621 C1.62288738,19.09781 1.64468738,19.09781 1.66648738,19.07621 L8.43048738,12.36361 L10.3723874,10.43641 C10.4159874,10.39311 10.4814874,10.34981 10.5250874,10.30651 C11.5069874,9.33211 11.5069874,7.75141 10.5250874,6.77701 L6.94678738,3.22581 C7.92858738,4.20021 7.92858738,5.78091 6.94678738,6.75531 L5.15758738,8.53091 L2.10288738,11.56241 L1.33918738,12.32031 C-0.450012625,14.09591 -0.450012625,17.01911 1.36098738,18.83801 Z" id="Vector_4"></path></g></g><g id="Group_6" transform="translate(29.253900, 5.061040)"><path d="M0,0.00024 L6.0221,0.00024 C6.9604,0.00024 7.8331,0.21677 8.6404,0.62819 C9.4478,1.03961 10.0805,1.62425 10.5387,2.36047 C11.0187,3.09669 11.2369,3.94117 11.2369,4.87227 C11.2369,5.80336 10.9969,6.64786 10.5387,7.38406 C10.0587,8.12026 9.4259,8.70496 8.6404,9.11636 C7.8331,9.52776 6.9822,9.74426 6.0221,9.74426 L2.5092,9.74426 L2.5092,15.91556 L0,15.91556 L0,0.00024 Z M6.0658,7.38406 C6.6112,7.38406 7.0913,7.25416 7.5058,7.01596 C7.8986,6.77776 8.2259,6.45296 8.4222,6.06326 C8.6404,5.67346 8.7277,5.28366 8.7277,4.87227 C8.7277,4.46086 8.6186,4.04944 8.4222,3.68133 C8.2041,3.29157 7.8986,2.98842 7.5058,2.75023 C7.1131,2.51204 6.6331,2.40378 6.0658,2.40378 L2.4874,2.40378 L2.4874,7.40576 L6.0658,7.40576 L6.0658,7.38406 Z" id="Vector_5"></path><path d="M13.0259,2.81495 C12.6986,2.49015 12.5459,2.10038 12.5459,1.64566 C12.5459,1.19094 12.6986,0.80117 13.0259,0.47637 C13.3532,0.15157 13.746,0 14.2042,0 C14.6624,0 15.0551,0.15157 15.3824,0.47637 C15.7097,0.80117 15.8624,1.19094 15.8624,1.64566 C15.8624,2.10038 15.7097,2.49015 15.3824,2.81495 C15.0551,3.13975 14.6624,3.29133 14.2042,3.29133 C13.7241,3.29133 13.3314,3.1181 13.0259,2.81495 Z" id="Vector_6"></path><polygon id="Vector_7" points="15.4265 4.56884 12.9609 4.56884 12.9609 15.91526 15.4265 15.91526"></polygon><path d="M18.4147,4.41725 L20.793,4.41725 L20.793,5.93296 L20.9021,5.93296 C21.2294,5.39166 21.7313,4.93694 22.3858,4.59048 C23.0404,4.24402 23.7386,4.0708 24.4805,4.0708 C25.8987,4.0708 26.9679,4.48221 27.6879,5.30506 C28.4298,6.12786 28.7789,7.23216 28.7789,8.66136 L28.7789,15.93686 L26.2915,15.93686 L26.2915,8.98616 C26.2915,8.07666 26.0733,7.42706 25.6151,6.99406 C25.1787,6.58256 24.546,6.36606 23.7605,6.36606 C23.1932,6.36606 22.6913,6.51766 22.2549,6.82076 C21.8185,7.12396 21.4694,7.53536 21.2294,8.05506 C20.9894,8.57476 20.8585,9.11606 20.8585,9.70066 L20.8585,15.91526 L18.3711,15.91526 L18.3711,4.41725 L18.4147,4.41725 Z" id="Vector_8"></path><path d="M32.9684,19.96446 C32.052,19.33646 31.4411,18.57866 31.1138,17.69086 L34.0376,17.69086 C34.0376,17.69086 34.4085,18.05896 34.5831,18.18886 C35.1067,18.55696 35.7395,18.73016 36.4595,18.73016 C37.5068,18.73016 38.3142,18.42706 38.9033,17.79906 C39.4924,17.19276 39.7979,16.32666 39.7979,15.20066 L39.7979,14.16136 L39.6669,14.16136 C39.296,14.70266 38.7942,15.11406 38.1832,15.41726 C37.5723,15.72036 36.8523,15.87196 36.0449,15.87196 C35.0849,15.87196 34.1903,15.63376 33.383,15.13576 C32.5539,14.63766 31.8993,13.94476 31.4193,13.05696 C30.9392,12.16916 30.6992,11.12986 30.6992,9.98216 C30.6992,8.83456 30.9392,7.79516 31.4193,6.90736 C31.8993,6.01956 32.5539,5.30506 33.383,4.80701 C34.2121,4.30898 35.0849,4.0708 36.0449,4.0708 C36.8304,4.0708 37.5505,4.22237 38.1832,4.54717 C38.816,4.85032 39.3178,5.28336 39.6888,5.82476 L39.8197,5.82476 L39.8197,4.43891 L42.1762,4.43891 L42.1762,15.15736 C42.1762,16.39166 41.9362,17.43096 41.4561,18.29716 C40.9761,19.16326 40.2997,19.81286 39.4488,20.26756 C38.5978,20.72236 37.5941,20.93886 36.4813,20.93886 C35.0631,20.91716 33.8848,20.59236 32.9684,19.96446 Z M38.1396,13.20856 C38.6414,12.92706 39.056,12.49396 39.3397,11.93106 C39.6451,11.36806 39.7979,10.71846 39.7979,9.96056 C39.7979,8.81296 39.4706,7.90346 38.8378,7.25386 C38.2051,6.60426 37.4196,6.27946 36.4813,6.27946 C35.8704,6.27946 35.3031,6.43106 34.8013,6.71256 C34.2994,6.99406 33.8848,7.42706 33.6012,7.96846 C33.2957,8.50976 33.143,9.18106 33.143,9.93886 C33.143,10.71846 33.2957,11.36806 33.6012,11.90936 C33.9067,12.45066 34.2994,12.88376 34.8013,13.16526 C35.3031,13.44676 35.8704,13.59836 36.4813,13.59836 C37.0705,13.64166 37.6378,13.49006 38.1396,13.20856 Z" id="Vector_9"></path><path d="M76.7161,15.15746 C75.8871,14.65936 75.2111,13.94486 74.7311,13.05706 C74.2511,12.16926 74.0111,11.15156 74.0111,10.02556 C74.0111,8.89956 74.2511,7.88186 74.7311,6.99406 C75.2111,6.10626 75.8871,5.41336 76.7161,4.89368 C77.5451,4.39565 78.4841,4.13581 79.5091,4.13581 C80.3161,4.13581 81.0361,4.30904 81.6911,4.6555 C82.3241,5.00196 82.8261,5.43506 83.1531,5.93306 L83.1531,4.374 L83.1531,0 L85.5971,0 L85.5971,15.91526 L83.2401,15.91526 L83.2401,14.13976 L83.1311,14.13976 C82.8041,14.63776 82.3241,15.04916 81.6691,15.39566 C81.0361,15.74206 80.2951,15.91526 79.4871,15.91526 C78.4841,15.91526 77.5451,15.65546 76.7161,15.15746 Z M81.5381,13.25196 C82.0621,12.94876 82.4771,12.51566 82.7821,11.95276 C83.0871,11.38976 83.2621,10.74016 83.2621,10.02556 C83.2621,9.31096 83.1091,8.66136 82.7821,8.09836 C82.4771,7.53536 82.0621,7.10236 81.5381,6.79916 C81.0151,6.49606 80.4691,6.34446 79.8801,6.34446 C79.2911,6.34446 78.7241,6.49606 78.2001,6.79916 C77.6761,7.10236 77.2621,7.53536 76.9561,8.09836 C76.6511,8.66136 76.4761,9.28936 76.4761,10.02556 C76.4761,10.74016 76.6291,11.38976 76.9561,11.95276 C77.2621,12.51566 77.6981,12.94876 78.2001,13.25196 C78.7241,13.55506 79.2911,13.70666 79.8801,13.70666 C80.4691,13.70666 81.0151,13.55506 81.5381,13.25196 Z" id="Vector_10"></path><path d="M66.832,4.0708 C63.5373,4.0708 60.8535,6.73416 60.8535,10.00386 C60.8535,13.27356 63.5373,15.93686 66.832,15.93686 C67.552,15.93686 68.2284,15.78536 68.8612,15.56876 L72.4391,12.01766 C72.6791,11.38966 72.8101,10.71846 72.8101,10.00386 C72.8101,6.71256 70.1485,4.0708 66.832,4.0708 Z M70.2358,10.67506 L67.552,13.36016 C67.312,13.42506 67.072,13.44676 66.8538,13.44676 C64.9337,13.44676 63.3627,11.88766 63.3627,9.98216 C63.3627,8.07666 64.9337,6.51766 66.8538,6.51766 C68.7739,6.51766 70.3449,8.07666 70.3449,9.98216 C70.3231,10.22036 70.3013,10.43696 70.2358,10.67506 Z" id="Vector_11"></path><path d="M52.3231,0 C55.596,0 58.4107,1.62401 59.6107,4.67715 L56.5124,4.67715 C55.6833,3.00983 54.1996,2.2303 52.3231,2.2303 C49.203,2.2303 46.9556,4.41731 46.9556,7.94686 C46.9556,11.45466 49.203,13.68496 52.3231,13.68496 C54.1996,13.68496 55.6833,12.90546 56.5124,11.23816 L59.6107,11.23816 C58.4107,14.29126 55.596,15.89366 52.3231,15.89366 C47.8938,15.89366 44.3154,12.62396 44.3154,7.94686 C44.3154,3.29133 47.9156,0 52.3231,0 Z" id="Vector_12"></path><path d="M90.1791,15.13586 C89.3061,14.61616 88.6291,13.92326 88.1271,13.01376 C87.6261,12.12596 87.3861,11.10826 87.3861,9.98226 C87.3861,8.92126 87.6261,7.92516 88.1061,7.01576 C88.5861,6.10636 89.2401,5.37006 90.0911,4.82876 C90.9421,4.28742 91.9241,4.02758 92.9931,4.02758 C94.1281,4.02758 95.1101,4.26577 95.9391,4.7638 C96.7681,5.26186 97.4011,5.93306 97.8371,6.79926 C98.2731,7.66536 98.4921,8.63976 98.4921,9.70076 C98.4921,9.89566 98.4921,10.39366 98.4481,10.69686 L89.7861,10.69686 C89.8731,11.73626 90.2441,12.29926 90.8991,12.86216 C91.5531,13.42516 92.3171,13.70666 93.1901,13.70666 C93.8881,13.70666 94.2371,13.55516 94.7611,13.23036 C95.2621,12.92716 95.6771,12.49406 95.9821,11.95276 L98.4261,11.95276 C98.2301,12.53736 97.9681,12.99216 97.9461,13.03546 C97.4231,13.90156 96.7681,14.57286 95.9391,15.09256 C95.0881,15.61216 94.3021,15.87206 93.1021,15.87206 C92.0331,15.91536 91.0511,15.65546 90.1791,15.13586 Z M96.0261,8.66146 C96.0041,8.27166 95.8731,7.88186 95.6551,7.49216 C95.4371,7.10236 95.1101,6.77756 94.6511,6.51776 C94.1931,6.25786 93.6481,6.12796 93.0151,6.12796 C92.2301,6.12796 91.5751,6.36616 91.0511,6.82086 C90.5061,7.27556 90.1351,7.90356 89.9391,8.66146 L96.0261,8.66146 Z" id="Vector_13"></path></g></g></g></g></g></g></svg>