<svg xmlns="http://www.w3.org/2000/svg" xmlns:xlink="http://www.w3.org/1999/xlink" viewBox="0 0 864.87 231.82"><defs><style>.cls-1{fill:url(#未命名的渐变_109);}.cls-2{fill:url(#未命名的渐变_108);}.cls-3{fill:#9bb7fb;}.cls-4{fill:url(#未命名的渐变_109-2);}.cls-5{fill:url(#未命名的渐变_108-2);}.cls-6{fill:#494949;}</style><linearGradient id="&#x672A;&#x547D;&#x540D;&#x7684;&#x6E10;&#x53D8;_109" x1="122.11" y1="86.32" x2="157.14" y2="121.35" gradientUnits="userSpaceOnUse"><stop offset="0" stop-color="#6698ff"></stop><stop offset="1" stop-color="#4269f3"></stop></linearGradient><linearGradient id="&#x672A;&#x547D;&#x540D;&#x7684;&#x6E10;&#x53D8;_108" x1="-9384.26" y1="11603.63" x2="-9474.23" y2="11693.6" gradientTransform="translate(-9294.57 11809.91) rotate(180)" gradientUnits="userSpaceOnUse"><stop offset="0" stop-color="#4269f3"></stop><stop offset="1" stop-color="#6698ff"></stop></linearGradient><linearGradient id="&#x672A;&#x547D;&#x540D;&#x7684;&#x6E10;&#x53D8;_109-2" x1="413.91" y1="-2649.25" x2="448.93" y2="-2614.22" gradientTransform="translate(487.77 -2503.74) rotate(180)" xlink:href="#&#x672A;&#x547D;&#x540D;&#x7684;&#x6E10;&#x53D8;_109"></linearGradient><linearGradient id="&#x672A;&#x547D;&#x540D;&#x7684;&#x6E10;&#x53D8;_108-2" x1="-9676.06" y1="14339.19" x2="-9766.03" y2="14429.16" gradientTransform="translate(9782.34 -14313.66)" xlink:href="#&#x672A;&#x547D;&#x540D;&#x7684;&#x6E10;&#x53D8;_108"></linearGradient></defs><g id="&#x56FE;&#x5C42;_2" data-name="&#x56FE;&#x5C42; 2"><g id="&#x56FE;&#x5C42;_1-2" data-name="&#x56FE;&#x5C42; 1"><path class="cls-1" d="M129.7,62.53a.39.39,0,0,0-.55,0h0a44,44,0,0,0,0,62.2l13.15,13.15L158,122.2a22.2,22.2,0,0,0,0-31.38"></path><path class="cls-2" d="M158,122.2a22.2,22.2,0,0,0,0-31.38l31.48,31.48a22.18,22.18,0,0,1,0,31.38c-.44.45-78.27,78-78.27,78a.37.37,0,0,1-.53,0l-2.08-2.07a41.07,41.07,0,0,1,0-58.08l33.68-33.7Z"></path><path class="cls-3" d="M142.2,137.8l.06.07L158,122.2A22.19,22.19,0,0,0,158.14,91l-1.82-1.82c8.67,8.67,8.44,22.8,1.6,31Z"></path><path class="cls-4" d="M66.27,169.29a.38.38,0,0,0,.55,0h0a44,44,0,0,0,0-62.2L53.67,93.94,38,109.63A22.2,22.2,0,0,0,38,141"></path><path class="cls-5" d="M38,109.63A22.2,22.2,0,0,0,38,141L6.5,109.52a22.18,22.18,0,0,1,0-31.38L84.78.11a.36.36,0,0,1,.52,0l2.08,2.08a41.05,41.05,0,0,1,0,58.07L53.7,94Z"></path><path class="cls-3" d="M53.77,94,53.71,94,38,109.63a22.19,22.19,0,0,0-.15,31.22l1.82,1.81c-8.67-8.66-8.44-22.8-1.6-31Z"></path><path class="cls-6" d="M267.47,196.37c-1.41-1.22-5-3.8-7.45-5.46-1.65,2.78-4.57,5.51-9.68,7.84a8.67,8.67,0,0,0-2.29-2.48c6.18-2.43,8.76-5.65,9.78-8.62h-9.35v-3h10a11.73,11.73,0,0,0,.09-1.75v-2.82h-4.09a23,23,0,0,1-3.07,4.33,23.74,23.74,0,0,0-2.92-1.75A23.16,23.16,0,0,0,254,173l3.26.63a30.44,30.44,0,0,1-1.32,3.56h13.25v2.92H262v2.82a10.57,10.57,0,0,1-.1,1.75h8.47v3h-9a4.94,4.94,0,0,1-.25.83c1.9,1,7.5,4.43,8.86,5.4Zm-11.93,1.26h29.7V217.5h-3.65v-1.71H259.1v1.8h-3.56Zm3.56,3v4.58h22.49V200.6Zm22.49,12.22V208H259.1v4.82ZM289.38,177v16.89h-17V177Zm-3.56,3.26h-10v10.32h10Z"></path><path class="cls-6" d="M332.8,176A47.18,47.18,0,0,1,339,186.56L335.87,188c-.29-.78-.63-1.61-1.07-2.58-13.29,1-14.95,1.22-16,1.61a23.73,23.73,0,0,0-1.16-3.41,5.1,5.1,0,0,0,2.23-1.9,41.79,41.79,0,0,0,5.07-8.67l3.7,1.17a55.66,55.66,0,0,1-5.94,9.11l10.66-.64a57.18,57.18,0,0,0-3.51-5.4Zm4,37.39c0,1.85-.34,2.82-1.7,3.41s-3.41.63-6.48.63a14.34,14.34,0,0,0-1.16-3.31c2.28.1,4.33.05,5,0s.83-.15.83-.78v-5.69H323v9.88h-3.36V190.35h17.18Zm-13.82-20v4.14h10.27v-4.14Zm10.27,11.44v-4.43H323v4.43Zm13.87-10.46c-4.57,0-5.74-1.12-5.74-5.07V173.27h3.51v8.13a89.82,89.82,0,0,0,11.29-4.58l2.43,2.63a109.4,109.4,0,0,1-13.72,4.92v4.91c0,1.51.39,1.85,2.58,1.85h7.74c1.84,0,2.19-.82,2.43-5.64a8.9,8.9,0,0,0,3.21,1.41c-.43,5.84-1.51,7.5-5.35,7.5ZM355.49,214c2,0,2.38-1,2.63-6.38a10,10,0,0,0,3.21,1.31c-.44,6.58-1.51,8.28-5.55,8.28h-8.47c-4.67,0-5.89-1.12-5.89-5.11V195.76H345v7.64c4.39-1.41,9.11-3.26,11.83-5.06l2.39,2.68c-3.7,2.19-9.3,4-14.22,5.4v5.65c0,1.6.44,1.9,2.68,1.9Z"></path><path class="cls-6" d="M405.82,174.19a68.24,68.24,0,0,1-4.92,9.59v33.74h-3.75V189.43a47.91,47.91,0,0,1-5.6,6.38,23.81,23.81,0,0,0-2.38-3.46,53.66,53.66,0,0,0,13.09-19.28ZM426.7,213c2.58,0,2.93-2.09,3.31-10.37a11,11,0,0,0,3.56,1.75c-.49,9.06-1.56,12.17-6.67,12.17h-8.57c-4.87,0-6.23-1.46-6.23-6.86v-8.37a69,69,0,0,1-6.77,3.89,19.5,19.5,0,0,0-2.68-2.72A73.76,73.76,0,0,0,412.1,197V174h3.8V194.1a60.23,60.23,0,0,0,13-14l3.56,2.34a74.49,74.49,0,0,1-16.6,16.31v11.1c0,2.68.48,3.21,2.82,3.21Z"></path><path class="cls-6" d="M461.72,175.51h17v3.31h-7.55a88.73,88.73,0,0,1-3,11.53h9.69v20.84H468.1v3.9H465V197.51a28.21,28.21,0,0,1-2.58,3.94,19.09,19.09,0,0,0-1.6-3.84c3.4-4.58,5.64-11.39,7-18.79h-6.09Zm12.95,18.06H468.1v14.36h6.57Zm31,2.77h-5.5v20.94h-3.46V196.34h-7.93c-.15,7.4-1.41,15.48-6.91,21.18a13,13,0,0,0-2.73-2.09c5-5.21,6-12.56,6.18-19.09H480v-3.45h5.35v-14h-4v-3.4h23.32v3.4h-4.53v14h5.5Zm-9-3.45v-14h-7.88v14Z"></path><path class="cls-6" d="M571.86,193.74a33.08,33.08,0,0,1-9.45,14.7,40.35,40.35,0,0,0,15.29,6,12.72,12.72,0,0,0-2.24,3.21,40.49,40.49,0,0,1-15.82-7,46.32,46.32,0,0,1-15,6.91,15.24,15.24,0,0,0-1.9-3.11,40.33,40.33,0,0,0,14-6.14,36.29,36.29,0,0,1-7.26-9.49,40.27,40.27,0,0,1-14.21,14.85,13,13,0,0,0-2.68-2.78c8.86-5.4,14.21-13.34,17.43-23.41h-6.77c-3.07,0-4.72.29-5.16.82a34.08,34.08,0,0,0-1.22-3.4c.69-.2,1.22-.88,1.76-1.95a39.75,39.75,0,0,0,3.26-8.62l3.8.73a48.93,48.93,0,0,1-3.51,8.91H551a76.12,76.12,0,0,0,2-11.15l4,.59c-.54,3.74-1.17,7.25-1.95,10.56h21l-.05,3.51h-21.9c-.54,1.75-1.12,3.5-1.71,5.16h16.31l.68-.2Zm-20.11,2.48a30.05,30.05,0,0,0,7.79,10,28.91,28.91,0,0,0,7.45-10Zm18-13.58a87.1,87.1,0,0,0-6.13-7.16l2.78-1.75c2.09,2.14,4.91,5.16,6.28,6.91Z"></path><path class="cls-6" d="M612.43,179.82a25.81,25.81,0,0,1-3.95,5.84,30,30,0,0,0-3.06-1.66,26.59,26.59,0,0,0,5.93-11l3.51.58a29.14,29.14,0,0,1-1.22,3.51h13v2.73h-7.4a24,24,0,0,1,2.14,4.23l-3.06,1.12a30.12,30.12,0,0,0-2.54-5.35ZM627.81,183a25.27,25.27,0,0,1,2,3.75h17.72v7.93h-3.61V189.6H611.7v5.06h-3.51v-7.93h17.87a32.14,32.14,0,0,0-1.46-3.07Zm-10.66,22.64h27V217.5h-3.56v-1.56H617.15v1.65h-3.6v-25h28v9.69H617.15Zm0-10.28v4.14H638v-4.14Zm0,13.1v4.67h23.41v-4.67Zm31.54-31.3v2.68H640a26.63,26.63,0,0,1,2.68,4.13l-2.93,1.37a27.67,27.67,0,0,0-3.45-5.5h-3.41a21.7,21.7,0,0,1-2.87,4.18,15.92,15.92,0,0,0-3-1.7,21.13,21.13,0,0,0,4.72-9.25l3.51.58c-.34,1.22-.73,2.34-1.17,3.51Z"></path><path class="cls-6" d="M692.38,207.15c-5.21,1.75-10.76,3.65-15.09,5.06l-.83-3.65c1.8-.53,4-1.21,6.52-2v-13.1h-5.55V190H683V179.45h-6V176H692v3.41h-5.6V190h4.91v3.41h-4.91v12l5.3-1.76Zm29.06,5.16v3.31H690.09v-3.31h14.8v-6.67h-11v-3.31h11v-5.7H694.42V175h24.73v21.66H708.54v5.7h11.34v3.31H708.54v6.67Zm-23.71-28h7.4v-6.13h-7.4Zm0,9.2h7.4v-6.23h-7.4Zm18-15.33h-7.45v6.13h7.45Zm0,9.1h-7.45v6.23h7.45Z"></path><path class="cls-6" d="M792.56,209.32v3.6H749.13v-3.6H768.7V181.37h-17v-3.7h38.46v3.7H772.65v27.95Z"></path><path class="cls-6" d="M837.85,208.22a63.59,63.59,0,0,1-14.66,8.13,19.55,19.55,0,0,0-2.57-2.68c5-1.8,11-4.91,13.87-7.59Zm26.77-2.53H821.2v-3.31h7.3V174.24h29.21v28.14h6.91Zm-32.57-28.43v4.14H854v-4.14ZM854,184.17H832.05v4.09H854ZM832.05,191v4.23H854V191Zm0,11.34H854V198H832.05Zm18.11,3.6a131.73,131.73,0,0,1,14.71,7.55L862,216.21a102.61,102.61,0,0,0-14.11-7.79Z"></path><path class="cls-6" d="M248.14,26.15h37.77a34.64,34.64,0,0,1,16.33,3.93A30.52,30.52,0,0,1,314.16,41a29,29,0,0,1,4.42,15.84,29.09,29.09,0,0,1-4.42,15.85,30.6,30.6,0,0,1-11.92,10.94,34.63,34.63,0,0,1-16.33,3.92H263.85v39H248.14Zm38.05,46.56a16.8,16.8,0,0,0,9-2.32,15.61,15.61,0,0,0,5.75-6,15.62,15.62,0,0,0,0-15.15,15.18,15.18,0,0,0-5.75-5.89,17.33,17.33,0,0,0-9-2.24H263.85V72.71Z"></path><rect class="cls-6" x="329.35" y="55.04" width="15.43" height="71.52"></rect><path class="cls-6" d="M363.55,54.07h14.93v9.52h.71a23.87,23.87,0,0,1,9.31-8.46,27.31,27.31,0,0,1,13.15-3.34q13.22,0,20.11,7.75t6.89,21.11v45.91H413V82.78q0-8.53-4.2-12.51t-11.58-4a15.86,15.86,0,0,0-9.38,2.91,19.49,19.49,0,0,0-6.4,7.75,24,24,0,0,0-2.27,10.38v39.23H363.55Z"></path><path class="cls-6" d="M454.64,152.06q-8.62-6-11.57-14.3l18.26-.06a40.16,40.16,0,0,0,3.41,3.07,20.09,20.09,0,0,0,11.71,3.44q9.81,0,15.35-5.82t5.54-16.34v-6.59h-.84a24.14,24.14,0,0,1-9.33,7.92,29.8,29.8,0,0,1-13.39,2.88,31.92,31.92,0,0,1-16.69-4.63,33.35,33.35,0,0,1-12.27-13.11,40.4,40.4,0,0,1-4.55-19.43,40.38,40.38,0,0,1,4.55-19.42,33.82,33.82,0,0,1,12.27-13.18,31.53,31.53,0,0,1,16.69-4.7,29.25,29.25,0,0,1,13.32,3,24.5,24.5,0,0,1,9.4,8h.84V54h14.73v67.6q0,11.64-4.49,19.84A29.74,29.74,0,0,1,495,153.88a39.54,39.54,0,0,1-18.58,4.21Q463.27,158.09,454.64,152.06ZM487,109.5a19.67,19.67,0,0,0,7.58-8,26,26,0,0,0,2.8-12.41q0-10.94-6-17A19.83,19.83,0,0,0,476.59,66a20.79,20.79,0,0,0-10.52,2.74,19.62,19.62,0,0,0-7.57,7.92,25.91,25.91,0,0,0-2.81,12.48,25.85,25.85,0,0,0,2.81,12.48,19.71,19.71,0,0,0,7.57,7.93,20.79,20.79,0,0,0,10.52,2.73A20.5,20.5,0,0,0,487,109.5Z"></path><path class="cls-6" d="M728.45,121.76A34.14,34.14,0,0,1,716,108.52a39.57,39.57,0,0,1-4.56-19.13A39.57,39.57,0,0,1,716,70.26,34.2,34.2,0,0,1,728.45,57,32.94,32.94,0,0,1,746,52.22a28,28,0,0,1,13.6,3.29,24.42,24.42,0,0,1,9.11,8.1h0V26.16h15.43v100.4H769.4V115.31h-.71a24.92,24.92,0,0,1-9.11,8,28,28,0,0,1-13.6,3.29A32.94,32.94,0,0,1,728.45,121.76Zm30.22-11.93a21.31,21.31,0,0,0,7.78-8.23,25,25,0,0,0,2.95-12.21,24.55,24.55,0,0,0-2.95-12.14,21.39,21.39,0,0,0-7.78-8.16,20.09,20.09,0,0,0-10.45-2.88,20.44,20.44,0,0,0-10.52,2.88,21.19,21.19,0,0,0-7.85,8.16,24.55,24.55,0,0,0-3,12.14,25,25,0,0,0,3,12.21,21.11,21.11,0,0,0,7.85,8.23,20.44,20.44,0,0,0,10.52,2.88A20.09,20.09,0,0,0,758.67,109.83Z"></path><path class="cls-6" d="M666.67,51.8a37.38,37.38,0,1,0,0,74.76,36.94,36.94,0,0,0,12.65-2.35l22.37-22.37A37,37,0,0,0,704,89.18,37.38,37.38,0,0,0,666.67,51.8ZM688,93.57l-16.9,16.89a18.9,18.9,0,0,1-4.38.53,21.81,21.81,0,1,1,21.81-21.81A19.48,19.48,0,0,1,688,93.57Z"></path><path class="cls-6" d="M575.78,26.29c20.48,0,38.14,10.31,45.62,29.51H602.05c-5.22-10.45-14.54-15.39-26.27-15.39-19.49,0-33.61,13.84-33.61,36s14.12,36.16,33.61,36.16c11.73,0,21.05-5,26.27-15.4H621.4c-7.48,19.21-25.14,29.38-45.62,29.38-27.68,0-50.13-20.62-50.13-50.14S548.1,26.29,575.78,26.29Z"></path><path class="cls-6" d="M812.75,121.73a34,34,0,0,1-12.84-13.32,39.26,39.26,0,0,1-4.63-19.12,40,40,0,0,1,4.49-18.71,35.39,35.39,0,0,1,12.49-13.74,33.2,33.2,0,0,1,18.23-5.1,35.07,35.07,0,0,1,18.43,4.69,30.83,30.83,0,0,1,11.87,12.84,40.55,40.55,0,0,1,4.07,18.36,53,53,0,0,1-.21,6.3H810.47c.55,6.54,2.87,10.11,7,13.65a21.18,21.18,0,0,0,14.29,5.31,16,16,0,0,0,9.78-3,22.17,22.17,0,0,0,7.66-8.07h15.36a46.37,46.37,0,0,1-2.95,6.82A37.72,37.72,0,0,1,849,121.59a30.65,30.65,0,0,1-17.72,5A35.9,35.9,0,0,1,812.75,121.73ZM849.4,80.86a17.65,17.65,0,0,0-2.35-7.38,16.7,16.7,0,0,0-6.28-6.14,19.87,19.87,0,0,0-10.28-2.49,18.26,18.26,0,0,0-12.36,4.35,22.56,22.56,0,0,0-7,11.66Z"></path><path class="cls-6" d="M337.09,26.15a10.4,10.4,0,1,0,0,20.8,9.57,9.57,0,0,0,2.59-.49L347,39.14a10.92,10.92,0,0,0,.51-2.53A10.39,10.39,0,0,0,337.2,26.15Z"></path></g></g></svg>