<?xml version="1.0" encoding="UTF-8"?>
<svg width="28px" height="28px" viewBox="0 0 28 28" version="1.1" xmlns="http://www.w3.org/2000/svg" xmlns:xlink="http://www.w3.org/1999/xlink">
    <title>wechat</title>
    <g id="设计稿" stroke="none" stroke-width="1" fill="none" fill-rule="evenodd">
        <g id="Docs站点百科页面布局备份" transform="translate(-1094.000000, -2223.000000)">
            <g id="编组-8" transform="translate(1094.000000, 2223.000000)">
                <circle id="椭圆形" fill="#89A1D2" cx="14" cy="14" r="14"></circle>
                <g id="weixin-3" transform="translate(6.000000, 8.000000)" fill="#FFFFFF" fill-rule="nonzero">
                    <path d="M4.53125,3.10971223 C4.53125,2.89668266 4.46614583,2.72521983 4.3359375,2.59532375 C4.20572917,2.46542767 4.03385417,2.40047961 3.8203125,2.40047961 C3.59635416,2.40047961 3.39843749,2.46672662 3.2265625,2.59922063 C3.05468751,2.73171464 2.96875,2.9018785 2.96875,3.10971223 C2.96875,3.31235011 3.0546875,3.47991606 3.2265625,3.61241007 C3.3984375,3.74490408 3.59635417,3.81115108 3.8203125,3.81115108 C4.03385416,3.81115108 4.20572916,3.747502 4.3359375,3.62020384 C4.46614584,3.49290568 4.53125,3.32274181 4.53125,3.10971223 L4.53125,3.10971223 Z M10.3359375,7.06115108 C10.3359375,6.91566746 10.2695313,6.78577138 10.1367187,6.67146284 C10.0039062,6.55715429 9.83333333,6.5 9.625,6.5 C9.48437501,6.5 9.35546876,6.55845324 9.23828126,6.67535971 C9.12109375,6.79226619 9.0625,6.92086331 9.0625,7.06115108 C9.0625,7.20663469 9.12109375,7.33782973 9.23828126,7.45473621 C9.35546876,7.57164269 9.48437501,7.63009592 9.625,7.63009592 C9.83333334,7.63009592 10.0039063,7.57294165 10.1367187,7.45863309 C10.2695312,7.34432453 10.3359375,7.21183053 10.3359375,7.06115108 L10.3359375,7.06115108 Z M8.4921875,3.10971223 C8.4921875,2.89668266 8.42838542,2.72521983 8.30078125,2.59532375 C8.17317708,2.46542767 8.00260417,2.40047961 7.78906251,2.40047961 C7.56510417,2.40047961 7.3671875,2.46672662 7.1953125,2.59922063 C7.0234375,2.73171464 6.9375,2.9018785 6.9375,3.10971223 C6.9375,3.31235011 7.0234375,3.47991606 7.1953125,3.61241007 C7.3671875,3.74490408 7.56510417,3.81115108 7.78906251,3.81115108 C8.00260417,3.81115108 8.17317708,3.747502 8.30078125,3.62020384 C8.42838542,3.49290568 8.4921875,3.32274181 8.4921875,3.10971223 L8.4921875,3.10971223 Z M13.453125,7.06115108 C13.453125,6.91566746 13.3854167,6.78577138 13.25,6.67146284 C13.1145833,6.55715429 12.9453125,6.5 12.7421875,6.5 C12.6015625,6.5 12.4726563,6.55845324 12.3554688,6.67535971 C12.2382813,6.79226619 12.1796875,6.92086331 12.1796875,7.06115108 C12.1796875,7.20663469 12.2382813,7.33782973 12.3554688,7.45473621 C12.4726563,7.57164269 12.6015625,7.63009592 12.7421875,7.63009592 C12.9453125,7.63009592 13.1145833,7.57294165 13.25,7.45863309 C13.3854167,7.34432453 13.453125,7.21183053 13.453125,7.06115108 L13.453125,7.06115108 Z M11.375,3.96702638 C11.2135417,3.94624301 11.03125,3.93585132 10.828125,3.93585132 C9.94791667,3.93585132 9.13802083,4.13589129 8.3984375,4.53597122 C7.65885417,4.93605116 7.07682292,5.47771783 6.65234376,6.16097122 C6.2278646,6.84422462 6.01562501,7.59112709 6.015625,8.40167865 C6.015625,8.80695443 6.07552083,9.20183853 6.1953125,9.58633093 C6.01302083,9.60191846 5.8359375,9.60971223 5.6640625,9.60971223 C5.52864583,9.60971223 5.3984375,9.60581534 5.27343751,9.59802158 C5.14843751,9.59022781 5.00520834,9.57334132 4.84375,9.5473621 C4.68229165,9.52138288 4.56640624,9.50319743 4.49609375,9.49280575 C4.42578127,9.48241406 4.28385419,9.45513588 4.0703125,9.41097121 C3.85677082,9.36680655 3.72656249,9.33952837 3.6796875,9.32913668 L1.70312501,10.3189448 L2.265625,8.61990407 C0.755208335,7.56514787 0,6.29216626 0,4.80095923 C0,3.9228617 0.253906251,3.11490807 0.761718754,2.37709833 C1.26953126,1.63928859 1.95703126,1.0586531 2.82421876,0.635191852 C3.69140626,0.211730608 4.63802084,0 5.6640625,0 C6.58072917,0 7.44661459,0.171462831 8.26171875,0.514388493 C9.07682291,0.857314154 9.75911458,1.33143486 10.3085938,1.9367506 C10.8580729,2.54206634 11.2135417,3.21882493 11.375,3.96702638 Z M16,8.33932854 C16,8.94724221 15.8216146,9.5278777 15.4648438,10.081235 C15.1080729,10.6345923 14.625,11.1372902 14.015625,11.5893285 L14.4453125,13 L12.890625,12.1504796 C12.109375,12.3427258 11.5416667,12.4388489 11.1875,12.4388489 C10.3072917,12.4388489 9.49739583,12.2556954 8.75781251,11.8893885 C8.01822918,11.5230815 7.43619793,11.0255795 7.01171875,10.3968825 C6.58723957,9.76818545 6.375,9.08233413 6.375,8.33932854 C6.375,7.59632294 6.58723959,6.91047162 7.01171875,6.28177458 C7.43619792,5.65307754 8.01822917,5.15557554 8.75781251,4.78926859 C9.49739585,4.42296164 10.3072917,4.23980815 11.1875,4.23980815 C12.0260417,4.23980815 12.8151042,4.42296163 13.5546875,4.78926859 C14.2942708,5.15557555 14.8867187,5.65437651 15.3320312,6.28567146 C15.7773437,6.91696641 16,7.60151877 16,8.33932854 Z" id="形状"></path>
                </g>
            </g>
        </g>
    </g>
</svg>