<?xml version="1.0" encoding="UTF-8"?>
<svg width="28px" height="28px" viewBox="0 0 28 28" version="1.1" xmlns="http://www.w3.org/2000/svg" xmlns:xlink="http://www.w3.org/1999/xlink">
    <title>microblog</title>
    <g id="设计稿" stroke="none" stroke-width="1" fill="none" fill-rule="evenodd">
        <g id="Docs站点百科页面布局备份" transform="translate(-1134.000000, -2223.000000)">
            <rect fill="#F6F6F6" x="0" y="0" width="1920" height="3641"></rect>
            <rect id="矩形" fill="#FFFFFF" x="576" y="88" width="650" height="2190" rx="4"></rect>
            <g id="编组-13" transform="translate(1094.000000, 2223.000000)">
                <g id="编组-9" transform="translate(40.000000, 0.000000)">
                    <g id="编组-8备份" fill="#89A1D2">
                        <circle id="椭圆形" cx="14" cy="14" r="14"></circle>
                    </g>
                    <g id="weibo" transform="translate(5.000000, 7.000000)" fill="#FFFFFF" fill-rule="nonzero">
                        <path d="M7.42356586,7.07576239 C6.08366436,6.74705077 4.57061847,7.37661709 3.98822369,8.49089375 C3.39599117,9.62745595 3.96854819,10.8884457 5.32222254,11.3007281 C6.72311809,11.7278675 8.37586002,11.0741585 8.9503846,9.84659703 C9.51507143,8.64689249 8.80872101,7.41375964 7.42356586,7.07576239 L7.42356586,7.07576239 Z M6.4004399,9.97659598 C6.12891801,10.3870212 5.54455568,10.5653055 5.10579205,10.3777356 C4.67293107,10.1920228 4.54504032,9.71474096 4.81852976,9.31545849 C5.0880841,8.91803314 5.65080338,8.73974888 6.08563191,8.91246176 C6.52636309,9.0888889 6.66802669,9.56245648 6.4004399,9.97659598 L6.4004399,9.97659598 Z M7.29567511,8.89017623 C7.19729762,9.04988921 6.97889958,9.12603145 6.80969028,9.05917485 C6.64244854,8.99417538 6.58932469,8.81589111 6.68376709,8.65989238 C6.78214458,8.50389365 6.99070488,8.42960854 7.15794662,8.49089375 C7.32912346,8.55032184 7.39011751,8.73046324 7.29567511,8.89017623 L7.29567511,8.89017623 Z M13.8771296,5.22792025 C14.1722621,5.31706238 14.4870701,5.1647779 14.58348,4.88806586 C14.8156509,4.20835709 14.6700522,3.43207768 14.1270084,2.86379658 C13.5839647,2.29551548 12.7812043,2.07823153 12.0414055,2.22680175 C11.7384028,2.28808697 11.5455829,2.56851327 11.6105121,2.85451094 C11.6754412,3.13865149 11.9725413,3.32250714 12.275544,3.2593648 C12.6375732,3.18693682 13.0291156,3.2927931 13.2967024,3.56950514 C13.5623216,3.84807431 13.635121,4.22692837 13.5190355,4.55935424 C13.4226256,4.83978054 13.5819971,5.13692098 13.8771296,5.22792025 L13.8771296,5.22792025 Z" id="形状"></path>
                        <path d="M15.8407444,1.40223702 C14.7251436,0.234103648 13.0783043,-0.211607019 11.5573882,0.0929619364 C11.2051968,0.163532792 10.9808961,0.490387281 11.0576306,0.822813154 C11.1323975,1.15523903 11.4786863,1.36695159 11.8308777,1.29638074 C12.9130301,1.07909679 14.0817548,1.39666564 14.876645,2.22680175 C15.6695676,3.05693787 15.8840305,4.18978582 15.5456119,5.18149205 C15.4354291,5.50463228 15.6223464,5.85005805 15.9647001,5.95591433 C16.3070538,6.05991349 16.673018,5.88348635 16.7832008,5.56220325 L16.7832008,5.56034612 C17.2573804,4.16007177 16.9583128,2.56851327 15.8407444,1.40223702 L15.8407444,1.40223702 Z M12.769399,6.25862616 C12.5293579,6.19176956 12.3660513,6.14534137 12.4919745,5.84820092 C12.7634964,5.20377758 12.791042,4.64663925 12.4978771,4.25107103 C11.9469631,3.50636279 10.4358848,3.54721961 8.70444086,4.23064263 C8.70444086,4.23064263 8.16139708,4.45535509 8.29912558,4.04864411 C8.56474482,3.24079352 8.52539382,2.56479901 8.11024078,2.17294505 C7.17171947,1.28523797 4.67489862,2.20637335 2.53223675,4.22692837 C0.930651114,5.74048751 0,7.34504591 0,8.73232036 C0,11.386156 3.60455146,13 7.13236847,13 C11.7561108,13 14.8313913,10.4650206 14.8313913,8.45003694 C14.8313913,7.23361825 13.7453038,6.54462384 12.769399,6.25862616 Z M7.14220622,12.0491506 C4.32860983,12.3110056 1.89868568,11.111301 1.71570353,9.36560094 C1.53272139,7.62175795 3.66751306,5.99491402 6.48110945,5.733059 C9.29470584,5.46934686 11.72463,6.67090853 11.9076121,8.41475151 C12.0886267,10.1585945 9.95580261,11.7854384 7.14220622,12.0491506 Z" id="形状"></path>
                    </g>
                </g>
            </g>
        </g>
    </g>
</svg>