<?xml version="1.0" encoding="UTF-8"?>
<svg width="28px" height="28px" viewBox="0 0 28 28" version="1.1" xmlns="http://www.w3.org/2000/svg" xmlns:xlink="http://www.w3.org/1999/xlink">
    <title>zhihu</title>
    <g id="设计稿" stroke="none" stroke-width="1" fill="none" fill-rule="evenodd">
        <g id="Docs站点百科页面布局备份" transform="translate(-1174.000000, -2223.000000)">
            <rect fill="#F6F6F6" x="0" y="0" width="1920" height="3641"></rect>
            <rect id="矩形" fill="#FFFFFF" x="576" y="88" width="650" height="2190" rx="4"></rect>
            <g id="编组-13" transform="translate(1094.000000, 2223.000000)">
                <g id="编组-10" transform="translate(80.000000, 0.000000)">
                    <g id="编组-8备份-2" fill="#89A1D2">
                        <circle id="椭圆形" cx="14" cy="14" r="14"></circle>
                    </g>
                    <g id="zhihu-2" transform="translate(6.000000, 7.000000)" fill="#FFFFFF" fill-rule="nonzero">
                        <path d="M7.98692881,12.0323399 L6.61931512,12.8836398 L4.89278384,10.2282816 C4.53629686,11.3395688 3.94323215,12.3406785 3.15977098,13.2601459 C2.83407151,13.642993 2.49540887,13.9877933 2.1057038,14.3500317 C1.98012316,14.4665504 1.47780058,14.9183577 1.39435023,15 L0.248730697,13.879201 C0.361348181,13.7690235 0.886356283,13.2966075 0.990061581,13.2006975 C1.33844659,12.8772987 1.63416874,12.5745086 1.91530733,12.2447686 C2.94101761,11.0415346 3.56000863,9.70038048 3.6466998,8.09844643 L0.416441618,8.09844643 L0.416441618,6.51315789 L3.65723238,6.51315789 L3.65723238,3.34258086 L2.95398078,3.34258086 C2.39575458,4.3460685 1.69169277,5.1038364 0.832883236,5.6071655 L0,4.24857325 C1.13022577,3.58433736 1.9647294,2.1845276 2.46138059,0 L4.04288647,0.344007622 C3.9294588,0.845751439 3.79739657,1.31658213 3.6466998,1.75729233 L7.30312197,1.75729233 L7.30312197,3.34258086 L5.27762775,3.34258086 L5.27762775,6.51315789 L7.30312197,6.51315789 L7.30312197,8.09844643 L5.42751431,8.09844643 L7.98692881,12.0323399 Z M11.0964675,11.9768548 L12.0006482,11.2690235 L13.3796046,11.2690235 L13.3796046,3.34258086 L10.1388139,3.34258086 L10.1388139,11.2690235 L10.7351194,11.2690235 L11.0964675,11.9768548 L11.0964675,11.9768548 Z M8.5184185,1.75729233 L15,1.75729233 L15,12.854312 L12.5694069,12.854312 L10.5439127,14.4396005 L9.73371504,12.854312 L8.5184185,12.854312 L8.5184185,1.75729233 Z" id="形状"></path>
                    </g>
                </g>
            </g>
        </g>
    </g>
</svg>