<svg xmlns="http://www.w3.org/2000/svg" width="30" height="30" viewBox="0 0 30 30" fill="none"><path fill-rule="evenodd" clip-rule="evenodd" d="M13.4842 17.5237C16.0797 19.2915 18.9101 18.9796 21.7913 16.6994L23.5366 19.895C24.2586 21.2169 23.7722 22.8737 22.4504 23.5956C22.0495 23.8146 21.6 23.9293 21.1432 23.9293H8.80231C7.29617 23.9293 6.0752 22.7083 6.0752 21.2022C6.0752 20.7493 6.18797 20.3036 6.40333 19.9052L7.63329 17.631C9.6028 16.1937 11.4886 16.1645 13.4842 17.5237ZM20.1847 6.0752V7.81063L18.6647 7.8098L18.6655 10.9758L20.9442 15.1503L20.9218 15.1708C18.5189 17.1653 16.4315 17.4314 14.4612 16.0894C12.6703 14.8696 10.8455 14.5117 9.04994 15.0096L11.2297 10.9778L11.2296 7.8098L9.7721 7.81063V6.0752H20.1847Z" fill="#6698FF"></path></svg>