<svg xmlns="http://www.w3.org/2000/svg" width="30" height="30" viewBox="0 0 30 30" fill="none"><path d="M4.5 21.4175H13.67" stroke="#6698FF" stroke-width="3"></path><path d="M10.4723 7.76758C8.5 8.5 6.8795 10.6104 6.35562 12.8628C5.90171 14.8144 6.25017 16.772 7.27802 18.4392H8.91304C7.87465 17.1752 7.35703 15.5272 7.53283 13.8449C7.76312 11.641 9.02592 9.87612 11 9" stroke="#6698FF" stroke-width="1.5" stroke-linejoin="round"></path><path d="M13.6719 7.69629C17.4605 7.69629 20.5319 10.7676 20.5319 14.5563C20.5319 18.345 17.4605 21.4163 13.6719 21.4163" stroke="#6698FF" stroke-width="3" stroke-linejoin="round"></path><path d="M15.63 10.8933L12.375 7.755L15.63 4.5V6.34333L14.23 7.74333L15.63 9.085V10.8933Z" fill="#6698FF" stroke="#6698FF" stroke-linejoin="round"></path><path d="M20 22.0692H24.4445V20.8325H21.4219L20 22.0692Z" fill="#6698FF" stroke="#6698FF" stroke-width="1.5" stroke-linejoin="round"></path><path d="M22.6006 18.2666L25.8556 21.3933L22.6006 24.6599V22.8166L24.0006 21.4166L22.6006 20.0749V18.2666Z" fill="#6698FF" stroke="#6698FF" stroke-width="1.5" stroke-linejoin="round"></path></svg>