<svg xmlns="http://www.w3.org/2000/svg" width="30" height="30" viewBox="0 0 30 30" fill="none"><path fill-rule="evenodd" clip-rule="evenodd" d="M19.8844 15.8605H19.9965V15.871C22.1696 15.9339 23.9141 17.7049 23.9141 19.8917C23.9141 22.1193 22.1088 23.9252 19.8809 23.9252C17.6529 23.9252 15.8477 22.1193 15.8477 19.8917C15.8477 19.8754 15.8524 19.8614 15.8524 19.8439V15.8605H19.8786L19.8797 15.86C19.8821 15.8594 19.8844 15.8605 19.8844 15.8605ZM10.1117 15.8577L10.1134 15.8583H14.1384V19.8417C14.1384 19.8592 14.1431 19.8732 14.1431 19.8895C14.1431 22.1171 12.3379 23.923 10.1099 23.923C7.88312 23.923 6.0767 22.1171 6.0767 19.8895C6.0767 17.7026 7.82123 15.9317 9.9943 15.8688V15.8583H10.1076L10.1099 15.8572L10.1117 15.8577ZM10.1082 6.0809C12.3361 6.0809 14.1413 7.88561 14.1413 10.1132C14.1413 10.1295 14.1367 10.1447 14.1367 10.161V14.1456H9.99255V14.1339C7.81948 14.071 6.07495 12.3001 6.07495 10.1132C6.07495 7.88561 7.88137 6.0809 10.1082 6.0809ZM19.8918 6.0752C22.1185 6.0752 23.9249 7.8799 23.9249 10.1064C23.9249 12.2944 22.1804 14.0653 20.0074 14.1282V14.1387H19.8941L19.8918 14.1398L19.89 14.1393L19.8882 14.1387H15.8632V10.1553C15.8632 10.139 15.8586 10.1238 15.8586 10.1064C15.8586 7.8799 17.6638 6.0752 19.8918 6.0752Z" fill="#6698FF"></path></svg>