<svg xmlns="http://www.w3.org/2000/svg" width="30" height="30" viewBox="0 0 30 30" fill="none"><g clip-path="url(#clip0_141_443)"><path fill-rule="evenodd" clip-rule="evenodd" d="M15 3.4375C16.0451 3.4375 16.8923 4.28472 16.8923 5.32983C16.8923 6.06816 16.4695 6.70772 15.8528 7.01958L15.8516 9.67563L21.3771 9.67595C22.5757 9.67595 23.5576 10.6034 23.6444 11.7798L23.6506 11.9495V21.5845C23.6506 22.783 22.7232 23.765 21.5468 23.8518L21.3771 23.858H8.62292C7.42434 23.858 6.44238 22.9305 6.35559 21.7541L6.34935 21.5845V11.9495C6.34935 10.7509 7.27683 9.76898 8.45324 9.68219L8.62292 9.67595L14.1472 9.67563L14.1472 7.01958C13.5305 6.70772 13.1077 6.06816 13.1077 5.32983C13.1077 4.28472 13.9549 3.4375 15 3.4375ZM17.0795 17.8067H12.9205C12.3463 17.8067 11.8808 18.1884 11.8808 18.6593C11.8808 19.094 12.2774 19.4527 12.7901 19.5053L12.9205 19.5119H17.0795C17.6537 19.5119 18.1192 19.1302 18.1192 18.6593C18.1192 18.2247 17.7226 17.866 17.2099 17.8134L17.0795 17.8067ZM11.3609 13.6478C10.7867 13.6478 10.3212 14.1133 10.3212 14.6875C10.3212 15.2617 10.7867 15.7272 11.3609 15.7272C11.9351 15.7272 12.4006 15.2617 12.4006 14.6875C12.4006 14.1133 11.9351 13.6478 11.3609 13.6478ZM18.6391 13.6478C18.0649 13.6478 17.5994 14.1133 17.5994 14.6875C17.5994 15.2617 18.0649 15.7272 18.6391 15.7272C19.2133 15.7272 19.6788 15.2617 19.6788 14.6875C19.6788 14.1133 19.2133 13.6478 18.6391 13.6478ZM4.60259 13.8349C5.02637 13.8349 5.37794 14.1441 5.44402 14.5492L5.45518 14.6875V18.8465C5.45518 19.3173 5.07346 19.6991 4.60259 19.6991C4.1788 19.6991 3.82723 19.3899 3.76116 18.9848L3.75 18.8465V14.6875C3.75 14.2166 4.13172 13.8349 4.60259 13.8349ZM25.3974 13.8349C25.8212 13.8349 26.1728 14.1441 26.2388 14.5492L26.25 14.6875V18.8465C26.25 19.3173 25.8683 19.6991 25.3974 19.6991C24.9736 19.6991 24.6221 19.3899 24.556 18.9848L24.5448 18.8465V14.6875C24.5448 14.2166 24.9265 13.8349 25.3974 13.8349Z" fill="#6698FF"></path></g><defs><clipPath id="clip0_141_443"><rect width="22.5" height="22.5" fill="white" transform="translate(3.75 2.875)"></rect></clipPath></defs></svg>