<svg xmlns="http://www.w3.org/2000/svg" width="30" height="30" viewBox="0 0 30 30" fill="none"><path d="M26.5767 23.4328C26.5624 23.1106 26.3148 22.838 25.9808 22.838H25.1464V12.4132C25.1464 12.018 24.9894 11.639 24.71 11.3596C24.4306 11.0802 24.0516 10.9232 23.6564 10.9232H17.4207C17.4207 11.2027 17.4174 11.482 17.4179 11.761C17.4203 12.7309 17.4223 13.7008 17.4241 14.6707C17.4266 15.7923 17.429 16.9139 17.4313 18.0356L17.4373 20.8288C17.4383 21.2169 17.4391 21.6051 17.4398 21.9935C17.4398 22.3276 17.1672 22.5751 16.845 22.5882C16.5229 22.6014 16.2503 22.304 16.2491 21.9935V21.9734C16.2377 21.5004 16.2468 21.0258 16.2458 20.5528C16.2439 19.5829 16.2418 18.613 16.2396 17.6431C16.2375 16.5212 16.2352 15.3996 16.2327 14.2782V8.45928C16.2327 8.06409 16.0757 7.6851 15.7963 7.40566C15.5168 7.12622 15.1378 6.96924 14.7427 6.96924H7.34352C6.94834 6.96924 6.56934 7.12622 6.28991 7.40566C6.01047 7.6851 5.85349 8.06409 5.85349 8.45928V22.8368C5.5871 22.8368 5.32071 22.8328 5.05457 22.8368H5.01963C4.70789 22.8368 4.40929 23.1109 4.4249 23.4315C4.44051 23.7522 4.68683 24.0262 5.01963 24.0262H25.1251C25.3977 24.0262 25.6723 24.0302 25.9453 24.0262H25.9803C26.292 24.0287 26.5906 23.7546 26.5767 23.4328ZM19.8424 14.9458H23.0213C23.3553 14.9458 23.6029 15.2183 23.6172 15.5417C23.6316 15.8651 23.333 16.1364 23.0213 16.1364H19.8424C19.5082 16.1364 19.2609 15.8639 19.2477 15.5417C19.2346 15.2196 19.5307 14.9458 19.8424 14.9458ZM19.8424 18.9017H23.0213C23.3553 18.9017 23.6029 19.1743 23.6172 19.4979C23.6316 19.8215 23.333 20.0926 23.0213 20.0926H19.8424C19.5082 20.0926 19.2609 19.82 19.2477 19.4979C19.2346 19.1757 19.5307 18.9017 19.8424 18.9017ZM9.40995 10.9333H12.675C13.0128 10.9333 13.263 11.2096 13.2777 11.536C13.2923 11.8623 12.9902 12.1386 12.675 12.1386H9.4102C9.07244 12.1386 8.82216 11.8626 8.80754 11.536C8.79292 11.2094 9.09499 10.9333 9.4102 10.9333H9.40995ZM9.40995 14.9287H12.675C13.0128 14.9287 13.263 15.2047 13.2777 15.5313C13.2923 15.8579 12.9902 16.1337 12.675 16.1337H9.4102C9.07244 16.1337 8.82216 15.8577 8.80754 15.5313C8.79292 15.205 9.09499 14.9299 9.4102 14.9299L9.40995 14.9287ZM9.40995 18.92H12.675C13.0128 18.92 13.263 19.1961 13.2777 19.5227C13.2923 19.8493 12.9902 20.1253 12.675 20.1253H9.4102C9.07244 20.1253 8.82216 19.849 8.80754 19.5227C8.79292 19.1963 9.09499 18.9195 9.4102 18.9195L9.40995 18.92Z" fill="#6698FF"></path></svg>