<svg xmlns="http://www.w3.org/2000/svg" width="30" height="30" viewBox="0 0 30 30" fill="none"><path d="M25.1145 11.0086H23.1316C23.0411 11.0101 22.9517 11.0343 22.8731 11.078L21.9795 8.39106C21.6943 6.8634 20.6158 6.125 19.2916 6.125H10.8938C9.37281 6.125 8.44994 7.11467 8.20535 8.38952L7.3092 11.0852C7.22612 11.0357 7.13149 11.0089 7.03481 11.0076H5.05239C4.97994 11.0074 4.90817 11.0216 4.84119 11.0492C4.77421 11.0768 4.71333 11.1174 4.66203 11.1685C4.61073 11.2197 4.57002 11.2804 4.54222 11.3473C4.51441 11.4142 4.50007 11.486 4.5 11.5584V12.0363C4.5 12.34 4.74716 12.5877 5.05239 12.5877L5.8026 12.7161C5.55066 13.214 5.42319 13.7655 5.43109 14.3234L5.1531 17.4939C5.1531 17.5853 5.15978 17.6788 5.17108 17.7734C5.15997 17.8327 5.15396 17.8929 5.1531 17.9532V21.7675C5.1531 22.3107 5.59398 22.75 6.13814 22.75H7.64114C7.77039 22.7503 7.89841 22.7251 8.01791 22.6758C8.1374 22.6266 8.24602 22.5543 8.33755 22.463C8.42908 22.3718 8.50173 22.2634 8.55135 22.1441C8.60096 22.0247 8.62657 21.8968 8.6267 21.7675V20.5425H21.5582V21.7675C21.5582 22.3107 21.999 22.75 22.5432 22.75H24.0472C24.1764 22.7502 24.3044 22.7249 24.4238 22.6757C24.5433 22.6264 24.6518 22.5541 24.7433 22.4628C24.8348 22.3716 24.9074 22.2632 24.957 22.1439C25.0066 22.0246 25.0322 21.8967 25.0323 21.7675V17.9527C25.0323 17.8926 25.0256 17.8325 25.0138 17.7734C25.0251 17.6788 25.0323 17.5853 25.0323 17.4933L24.7538 14.3229C24.7538 13.7058 24.6181 13.177 24.3807 12.7135L25.114 12.5892C25.1865 12.5894 25.2584 12.5753 25.3255 12.5477C25.3925 12.52 25.4535 12.4795 25.5049 12.4282C25.5562 12.377 25.597 12.3162 25.6248 12.2492C25.6526 12.1822 25.6669 12.1104 25.6669 12.0378V11.56C25.6662 11.4137 25.6077 11.2736 25.5041 11.1703C25.4005 11.067 25.2603 11.0089 25.114 11.0086H25.1145ZM8.86718 10.4449L9.52337 8.70194L9.53159 8.66083C9.59685 8.30936 9.74226 8.24565 9.95808 7.97433H20.234C20.4519 8.25387 20.5875 8.32478 20.6466 8.65827L21.3141 10.4465L21.5587 11.4176C21.5032 12.1283 20.6466 12.6894 19.936 12.6894H10.2453C9.53313 12.6894 8.67655 12.1283 8.62156 11.4171L8.86718 10.4449ZM9.32656 18.7343C9.12723 18.7314 8.9305 18.6886 8.74802 18.6083C8.56554 18.528 8.40102 18.4119 8.26421 18.2669C8.1274 18.1219 8.02107 17.951 7.95152 17.7641C7.88198 17.5773 7.85062 17.3784 7.85932 17.1793C7.86802 16.9801 7.9166 16.7847 8.00217 16.6046C8.08774 16.4246 8.20857 16.2635 8.35751 16.131C8.50644 15.9985 8.68046 15.8972 8.86924 15.8332C9.05802 15.7691 9.25774 15.7436 9.45657 15.7581C9.84321 15.7863 10.2036 15.9641 10.4613 16.2537C10.719 16.5434 10.8537 16.922 10.8368 17.3093C10.8199 17.6966 10.6527 18.0621 10.3707 18.3281C10.0887 18.5942 9.71419 18.7399 9.32656 18.7343ZM17.6617 17.6362C17.6613 17.7537 17.6143 17.8662 17.5311 17.9491C17.4479 18.0321 17.3352 18.0786 17.2177 18.0786H13.0314C12.914 18.0786 12.8014 18.0321 12.7182 17.9493C12.635 17.8665 12.588 17.7541 12.5874 17.6367V16.3927C12.5874 16.1481 12.7868 15.9503 13.0314 15.9503H17.2177C17.4623 15.9503 17.6617 16.1481 17.6617 16.3922V17.6362ZM20.8547 18.7343C20.659 18.7346 20.4651 18.6964 20.2841 18.6218C20.1032 18.5472 19.9387 18.4377 19.8001 18.2995C19.6615 18.1613 19.5514 17.9971 19.4763 17.8164C19.4011 17.6357 19.3623 17.4419 19.362 17.2462C19.3623 17.0505 19.4011 16.8567 19.4763 16.676C19.5514 16.4952 19.6615 16.3311 19.8001 16.1929C19.9387 16.0547 20.1032 15.9452 20.2841 15.8706C20.4651 15.796 20.659 15.7577 20.8547 15.7581C21.0504 15.7578 21.2442 15.7961 21.4251 15.8707C21.606 15.9454 21.7704 16.0549 21.909 16.1931C22.0476 16.3313 22.1576 16.4954 22.2327 16.6761C22.3078 16.8568 22.3467 17.0505 22.3469 17.2462C22.3461 17.6413 22.1885 18.02 21.9087 18.299C21.6289 18.578 21.2498 18.7346 20.8547 18.7343Z" fill="#6698FF"></path></svg>