<svg xmlns="http://www.w3.org/2000/svg" width="30" height="30" viewBox="0 0 30 30" fill="none"><path d="M16.8863 23.2916C17.5567 23.9496 18.4131 24.3858 19.3395 24.541C20.266 24.6961 21.2177 24.5629 22.0659 24.1592C22.1616 24.1146 22.2448 24.0473 22.3084 23.9631C22.372 23.8788 22.414 23.7803 22.4307 23.6761C22.4461 23.5723 22.4372 23.4663 22.4047 23.3665C22.3722 23.2667 22.317 23.1758 22.2434 23.101L20.5574 21.415L21.4251 20.5473L23.1505 22.2728C23.2235 22.3478 23.3139 22.4038 23.4135 22.4359C23.5132 22.468 23.6193 22.4751 23.7224 22.4568C23.8538 22.4305 23.9749 22.3665 24.0707 22.2728C24.1275 22.2211 24.1713 22.157 24.1989 22.0854C24.6038 21.24 24.7374 20.2901 24.5815 19.3658C24.4256 18.4416 23.9878 17.5881 23.328 16.9223C22.7746 16.3655 22.0849 15.9636 21.3278 15.7566C20.5706 15.5496 19.7724 15.5447 19.0127 15.7424L14.2867 11.0163C14.4684 10.2481 14.4525 9.44642 14.2404 8.68605C14.0283 7.92568 13.627 7.23146 13.0739 6.66821C12.407 6.01018 11.5536 5.57355 10.6298 5.41771C9.70599 5.26188 8.75658 5.39441 7.91075 5.79728C7.8158 5.84286 7.73315 5.9105 7.66968 5.99454C7.60622 6.07859 7.56379 6.17661 7.54594 6.2804C7.53162 6.38419 7.54105 6.48988 7.57349 6.58951C7.60594 6.68913 7.66057 6.7801 7.73327 6.85555L9.45543 8.5777L8.57792 9.45521L6.85576 7.73306C6.7821 7.65864 6.69168 7.60296 6.59207 7.57068C6.49246 7.53839 6.38657 7.53045 6.28326 7.54751C6.17995 7.56456 6.08223 7.60613 5.99828 7.66872C5.91434 7.73131 5.84661 7.8131 5.80078 7.90724C5.40471 8.75486 5.27559 9.70284 5.43054 10.6255C5.58549 11.5482 6.0172 12.402 6.66843 13.0737C7.22441 13.6276 7.9146 14.0279 8.67154 14.2352C9.42848 14.4426 10.2263 14.4501 10.987 14.2569L15.7097 18.9796C15.5141 19.7386 15.5197 20.5355 15.7261 21.2917C15.9324 22.0478 16.3323 22.7371 16.8863 23.2916Z" fill="#6698FF"></path><path d="M7.68964 24.3012L7.6868 24.2983L5.20788 21.8194L5.20694 21.8185C5.08003 21.6922 4.97927 21.5422 4.91043 21.3769L4.44887 21.5692L4.91043 21.3769C4.8416 21.2117 4.80605 21.0345 4.80581 20.8555C4.80557 20.6764 4.84066 20.4991 4.90906 20.3337C4.97746 20.1683 5.07782 20.018 5.20441 19.8914L10.5461 14.5497C10.7949 14.3055 11.1266 14.1642 11.4751 14.1538C11.8242 14.1434 12.1644 14.2652 12.4275 14.4949L12.7795 14.8021L13.1099 14.4718L17.9705 9.61113L18.0545 9.52716L18.0917 9.41441L18.8559 7.10115C18.8643 7.07995 18.877 7.06068 18.8932 7.04452C18.9105 7.0272 18.9314 7.01387 18.9544 7.0055L18.9683 7.00046L18.9818 6.99462L21.8912 5.7378L21.8913 5.73783L21.8967 5.73539C21.9282 5.72132 21.9633 5.71702 21.9973 5.72306C22.0305 5.72896 22.0612 5.74445 22.0857 5.76761L23.7281 7.40995L23.728 7.41001L23.7347 7.41651C23.7634 7.44407 23.783 7.47963 23.791 7.51853L24.2732 7.41863L23.791 7.51853C23.7989 7.55639 23.7954 7.5957 23.7811 7.63158L22.5163 10.5112L22.5098 10.5261L22.5042 10.5414C22.4958 10.5644 22.4825 10.5853 22.4652 10.6026C22.449 10.6188 22.4297 10.6315 22.4086 10.6399L20.0953 11.4041L19.9825 11.4413L19.8986 11.5253L15.0379 16.3859L14.7043 16.7195L15.018 17.0719C15.2496 17.3321 15.3726 17.6711 15.3617 18.0192C15.3509 18.3673 15.2069 18.698 14.9596 18.9432L14.9581 18.9447L9.60096 24.3018L9.59908 24.3037C9.47414 24.43 9.32536 24.5302 9.16138 24.5985C8.99739 24.6668 8.82147 24.7019 8.64382 24.7017C8.46618 24.7014 8.29035 24.6659 8.12654 24.5972C7.96274 24.5284 7.81423 24.4278 7.68963 24.3012L7.68964 24.3012Z" fill="#6698FF" stroke="#FAFCFF"></path></svg>