<svg xmlns="http://www.w3.org/2000/svg" width="30" height="30" viewBox="0 0 30 30" fill="none"><path fill-rule="evenodd" clip-rule="evenodd" d="M17.6823 5.20046V20.8754H9.16185C8.59625 20.8754 8.13565 21.3051 8.13565 21.8367C8.13845 22.3695 8.59765 22.7993 9.16185 22.7979H22.0391C22.4619 22.7966 22.8049 23.1192 22.8063 23.5199C22.8049 23.9192 22.4605 24.2418 22.0377 24.2406H9.16045C7.74925 24.2444 6.60405 23.1668 6.59985 21.8354V6.64301C6.59985 5.8457 7.28725 5.20046 8.13565 5.20046H17.6823ZM21.1114 5.2002C22.048 5.2002 22.8054 5.83354 22.8054 6.61233V19.463C22.8054 20.2431 22.048 20.8765 21.1114 20.8765H18.8532V5.2002H21.1114Z" fill="#6698FF"></path></svg>