<svg xmlns="http://www.w3.org/2000/svg" width="30" height="30" viewBox="0 0 30 30" fill="none"><path d="M22.3859 14.6899H17.4329C16.8513 14.6899 16.3799 15.1614 16.3799 15.7429V22.2559C16.3799 22.8375 16.8513 23.3089 17.4329 23.3089H22.3859C22.9674 23.3089 23.4389 22.8375 23.4389 22.2559V15.7429C23.4389 15.1614 22.9674 14.6899 22.3859 14.6899Z" fill="#6698FF" stroke="#6698FF" stroke-width="1.11"></path><path d="M22.3339 7.24072H17.4849C16.8746 7.24072 16.3799 7.73545 16.3799 8.34572V10.9457C16.3799 11.556 16.8746 12.0507 17.4849 12.0507H22.3339C22.9442 12.0507 23.4389 11.556 23.4389 10.9457V8.34572C23.4389 7.73545 22.9442 7.24072 22.3339 7.24072Z" fill="#6698FF" stroke="#6698FF" stroke-width="1.11"></path><path d="M12.0639 7.24072H7.21486C6.60459 7.24072 6.10986 7.73545 6.10986 8.34572V22.2167C6.10986 22.827 6.60459 23.3217 7.21486 23.3217H12.0639C12.6741 23.3217 13.1689 22.827 13.1689 22.2167V8.34572C13.1689 7.73545 12.6741 7.24072 12.0639 7.24072Z" fill="#6698FF" stroke="#6698FF" stroke-width="1.11"></path></svg>